<svg xmlns="http://www.w3.org/2000/svg" viewBox="0 0 1686.36303 682.15434"><defs><style>.cls-1{fill:#fff;}</style></defs><g id="Layer_2" data-name="Layer 2"><g id="Layer_1-2" data-name="Layer 1"><path class="cls-1" d="M1686.363,509.31726c-.7953,4.73686-1.28573,9.54936-2.44179,14.19662-3.79353,15.24891-13.15932,26.21589-26.76746,33.74374-16.41875,9.08261-34.25779,13.62059-52.71621,15.68793-27.95829,3.13127-55.79471,1.18321-83.785-2.82738V520.66743c5.16369,1.20436,10.21222,2.3819,15.49046,3.613,1.10116-5.889,1.87792-11.63425,3.26857-17.22711,10.21929-41.09514,46.99926-65.79165,89.05174-60.20973,15.71543,2.086,30.23478,6.47017,41.54509,18.30942A55.86793,55.86793,0,0,1,1685.471,499.4712c.15458,1.63122.58791,3.236.892,4.85309Zm-91.99762,22.94468c3.15841,0,6.43088.53623,9.45314-.10477,7.74126-1.6418,15.60928-3.17437,22.97979-5.93945,7.48983-2.80977,11.1078-9.30483,11.34338-17.285.22826-7.72947-3.74314-13.19729-10.17451-17.0822-9.37677-5.66417-22.27953-5.21092-31.03984,1.38129-11.18186,8.41457-15.667,20.154-16.433,33.74024-.23509,4.1707,1.32307,5.69291,5.39622,5.34489C1588.69628,532.07726,1591.53908,532.271,1594.36541,532.26194Z"/><path class="cls-1" d="M850.11177,335.27923h58.8923c-13.87673,60.183-20.51318,120.81925-22.00643,183.31842,1.67418-1.76308,2.6659-2.67763,3.508-3.71364,12.81-15.75665,29.70689-23.63133,49.627-25.43778a127.49283,127.49283,0,0,1,15.96679-.23051c15.78826.55683,27.07436,8.09511,33.79663,22.37629,6.13169,13.02658,7.06009,26.87073,6.25905,40.9602-1.43506,25.24064-8.419,49.15246-18.96862,71.871-7.04459,15.17035-15.85352,29.52995-24.08918,44.13048-.87784,1.55628-3.18982,3.23732-4.866,3.26834-18.14269.336-36.2913.35582-54.43833.44152a8.87982,8.87982,0,0,1-1.79557-.47754c1.132-1.82872,2.12076-3.4824,3.163-5.10176,17.33085-26.92875,32.30441-55.01877,41.90138-85.70888,3.08783-9.87471,5.30222-19.94274,3.84111-30.4178-1.27055-9.1082-6.30217-13.43085-15.50436-13.43579-20.88625-.01115-38.65271,18.78038-36.57953,39.47877,1.23877,12.36741,3.7152,24.61084,5.63,36.91084.17355,1.11483.30866,2.23568.54387,3.95506H863.83625c-14.16824,0-14.20863.00811-17.01958-13.975-6.9151-34.4001-8.52035-69.27506-8.871-104.21788-.52807-52.6337,2.36243-105.0574,10.89571-157.076C849.21484,339.921,849.67289,337.65826,850.11177,335.27923Z"/><path class="cls-1" d="M339.30054,617.46646H305.636c-11.24376,0-11.34719.02329-13.8519-11.08741-5.39579-23.93534-7.25769-48.30629-8.52592-72.7218a922.621,922.621,0,0,1,2.16854-126.14336c1.91424-22.50654,5.28111-44.89012,8.03293-67.32422a49.16725,49.16725,0,0,1,1.1513-5.00062H353.3233C339.52569,395.2912,332.78237,456.016,331.34093,518.58284c1.67137-1.76156,2.66752-2.68238,3.515-3.724,12.81653-15.752,29.70643-23.7788,49.64341-25.34657a105.09766,105.09766,0,0,1,22.86594.64131c12.686,1.80455,21.17545,9.72041,26.69034,21.00417,5.39441,11.03719,6.86766,22.89732,6.68851,34.94755-.40961,27.55518-7.80114,53.59206-19.24461,78.34711-7.01748,15.18059-15.85508,29.52849-24.09306,44.12774-.87543,1.55146-3.19845,3.21245-4.879,3.24336-18.14272.33363-36.29131.35307-54.43839.437a8.12777,8.12777,0,0,1-1.7457-.49606c1.13089-1.82733,2.12185-3.48411,3.16572-5.10689,17.32489-26.93216,32.29868-55.02175,41.892-85.71351,3.03622-9.7138,5.223-19.61837,3.88664-29.92374-1.25386-9.66876-6.30965-13.99457-16.09239-13.89126-20.60544.21759-38.10015,18.99869-36.04408,39.5043,1.24,12.36674,3.71972,24.6092,5.63521,36.90865C338.95919,614.65109,339.07972,615.7683,339.30054,617.46646Z"/><path class="cls-1" d="M231.8649,334.56338H174.31739c-12.2763,0-12.2788.00079-15.93318-11.72-12.04413-38.6294-14.65945-78.24122-12.6865-118.395,1.37676-28.02036,6.55965-55.2083,18.63206-80.5807,4.0914-8.59882,4.75491-15.58037,1.25307-24.54081-6.56078-16.78761-8.98942-34.66553-10.3458-53.18859,2.135,0,4.07112-.11045,5.99131.01775,13.457.89846,26.90516,1.94467,40.36967,2.70414,3.09872.17478,4.15381,1.22123,4.72683,4.27929,4.801,25.62164,14.54119,49.08826,32.10734,68.67061a56.809,56.809,0,0,0,16.00657,12.39852c11.64279,5.96551,26.80938,1.34863,34.01388-9.58942,5.42364-8.23428,5.62234-17.063.74138-25.49335-5.01878-8.66835-13.44693-10.96753-22.843-9.92993-10.91916,1.20577-20.259,6.17951-28.70175,12.9897-1.28711,1.03823-2.54235,2.11592-4.15161,3.45839A109.632,109.632,0,0,1,217.4325,68.218a3.82585,3.82585,0,0,1,1.30562-3.27836c17.20676-10.625,35.24943-19.44554,56.09444-18.14324,25.88357,1.61709,45.85257,13.75682,55.62178,38.18206,10.00051,25.00348,4.917,48.551-12.822,68.76157-24.56018,27.9822-68.5017,33.51521-101.87233,13.21279-5.341-3.24942-10.27661-7.16406-15.41308-10.78064C187.28652,185.22321,190.95658,271.64524,231.8649,334.56338Z"/><path class="cls-1" d="M171.36178,439.03477c27.72778-12.15107,55.08009-24.1376,83.10532-36.419,3.24944,18.41157,6.51872,36.93547,9.85481,55.83789-9.62576,2.48131-18.90278,4.87269-28.07631,7.2374,2.522,10.66263,5.5457,20.87859,7.29468,31.308,5.99,35.71953,4.73241,70.92172-9.42133,104.85885-4.58527,10.99434-10.58617,21.38328-19.66331,29.16035-22.92,19.63726-33.89249,20.21409-56.14661,4.0911-11.00646-7.97412-19.63777-19.22573-29.31107-29.02656a33.80506,33.80506,0,0,1-2.52-3.06722c-4.485,8.08359-8.56094,16.44328-13.62257,24.15714-2.85185,4.34624-6.97883,8.07975-11.14369,11.29818-9.64324,7.45185-19.8075,9.5048-32.08126,5.043A105.58122,105.58122,0,0,1,.06341,540.22241c.32573-9.567,2.30953-19.09061,3.80864-28.59011.2134-1.35228,2.00266-3.49913,3.08782-3.5147,15.95433-.228,31.91293-.15689,47.21053-.15689-.94155,10.54521-2.54292,20.69376-2.5926,30.84993-.07571,15.48253,3.22645,30.55639,10.90345,44.07422,3.7617,6.62373,9.46136,12.21229,14.65166,17.93641,2.77189,3.057,5.804,2.56,8.8749-.59566a39.63223,39.63223,0,0,0,11.11066-21.90482c1.8872-12.30024,2.94931-24.72891,4.25571-37.11417.23473-2.22526.02435-4.28316,3.14851-4.57766,13.2223-1.24617,26.43333-2.61193,38.27479-3.79654,3.63178,10.33451,6.237,20.31417,10.57366,29.47552A74.78446,74.78446,0,0,0,181.635,593.88718c3.07724,1.93923,5.25653,1.60571,7.819-.875,9.80768-9.49438,13.4984-21.70332,14.7103-34.61221,3.966-42.245-7.63917-80.54989-30.41989-115.85493C172.93739,441.29432,172.07319,440.08042,171.36178,439.03477Z"/><path class="cls-1" d="M1246.928,380.11467h-6.049c-19.15028,0-38.30422-.19982-57.44852.13875-4.86125.086-6.94046-1.74421-8.83058-5.85287-13.21117-28.718-16.85293-58.97538-14.50325-90.10433,2.17437-28.80672,9.36542-56.30052,22.97748-81.984.802-1.51314.3716-4.14757-.33818-5.919-7.30122-18.22025-11.10585-37.21177-12.90837-56.66837-.07308-.78827-.00927-1.58919-.00927-2.95494,4.88468.30959,9.48327.62113,14.08455.88864,10.63677.61842,21.27036,1.31811,31.91469,1.75961,3.24991.1348,4.33081,1.27373,4.98069,4.55626,4.96971,25.1016,15.08469,47.80822,32.7056,66.707,8.22621,8.82287,17.75926,15.08211,30.768,13.11229,10.95579-1.659,20.8846-10.48452,22.28673-20.0731,2.30027-15.73028-8.9549-27.214-25.01265-25.53691-11.11122,1.16046-20.70332,5.85141-29.41654,12.59262-1.30952,1.013-2.584,2.07087-4.21393,3.38052a102.09713,102.09713,0,0,1-16.0935-36.23911,3.78869,3.78869,0,0,1,1.53584-3.14433c22.45471-13.40554,46.03-22.55141,72.53967-14.4928,22.28977,6.77575,37.80292,21.28312,42.31953,44.71914,4.82246,25.02293-3.64274,46.0548-23.1917,62.16474-29.28527,24.13361-72.9458,23.8019-104.632-.28-1.81716-1.38105-3.60773-2.797-6.36159-4.93479C1199.51142,294.31842,1213.64807,338.85506,1246.928,380.11467Z"/><path class="cls-1" d="M858.95376,237.67387v-51.0145l33.05287-5.91516c-1.63288-14.36957-3.57564-27.838-4.61854-41.37557-2.38524-30.96292.63622-61.28961,14.44957-89.54007a136.371,136.371,0,0,1,18.2786-27.77181c17.1916-20.34469,39.613-25.83791,65.01715-19.66028,24.32812,5.916,37.365,23.03258,43.50743,46.09838,6.42857,24.14024,4.43378,47.87347-5.49552,70.76329-29.47784,67.95453-80.41269,107.91827-154.39463,117.60507q-3.46422.45361-6.94229.79772C861.001,237.74185,860.17856,237.67387,858.95376,237.67387Zm78.04862-80.23123a7.26814,7.26814,0,0,0,1.53614-.41227c.69246-.45724,1.35448-.964,2.00473-1.48106a113.965,113.965,0,0,0,38.82838-57.334c3.74326-12.29933,4.99252-24.82869,1.33026-37.36326C977.348,49.3731,964.51342,45.56465,955.214,53.18765a23.18244,23.18244,0,0,0-5.81815,6.74174c-2.864,5.40722-5.7985,10.9221-7.56875,16.73784C933.79151,103.06485,933.29821,129.98786,937.00238,157.44264Z"/><path class="cls-1" d="M1511.34489,487.62558c-18.32143,1.669-35.78191,3.25957-53.53616,4.87689-.50922-4.57656-.61939-8.73839-1.5079-12.72713-1.03954-4.66728-2.178-9.47469-4.30519-13.7032-4.03386-8.019-11.37705-11.05914-19.06609-8.77058-7.15617,2.12993-11.97582,9.103-10.76048,17.59616.95049,6.641,2.20414,13.80164,5.53676,19.42068a237.52254,237.52254,0,0,0,22.55171,32.12074c12.88946,15.25922,26.3556,30.00968,36.62967,47.25675,8.07566,13.55641,14.15811,27.86652,15.76178,43.76411,2.43337,24.12442-7.66258,42.20985-27.82678,54.47376-35.44385,21.557-86.42744,7.61068-106.4705-28.66519a60.14012,60.14012,0,0,1-7.74736-31.99961c16.27039-.7584,32.32314-1.50667,48.89608-2.2792.40638,2.21983.8147,4.26377,1.15142,6.3194,2.46936,15.07643,13.55032,23.32433,27.08393,20.14436,8.74567-2.0549,13.48481-7.64048,13.58522-16.61905.15335-13.72194-4.86016-25.77169-13.2457-36.30818-9.52731-11.97081-19.58-23.52406-29.39372-35.26753-12.29-14.70664-23.874-29.83432-31.70973-47.56116-15.18607-34.35664-1.55206-67.71451,33.5386-81.40135,44.199-17.23951,89.28037,7.90424,98.72607,55.12049C1510.141,477.938,1510.603,482.54762,1511.34489,487.62558Z"/><path class="cls-1" d="M562.46436,312.71033c10.761-20.298,21.85113-40.14707,31.89944-60.50932,8.01936-16.25071,14.43231-33.21913,16.03737-51.58388,1.69431-19.38549-8.34088-27.37729-27.01189-21.41136-14.14744,4.52052-25.9122,19.49828-26.009,36.80417-.06375,11.41112,3.3209,22.847,5.23859,34.25893.3807,2.26554,1.112,4.47229,1.7977,7.161a33.59337,33.59337,0,0,1-4.01068.51907c-12.32.0356-24.64074-.03906-36.95992.07046-2.665.02365-4.15836-.55464-4.99991-3.41161-9.10758-30.92032-15.99632-62.22474-14.21557-94.68882.67946-12.38721,3.117-24.686,4.99252-36.98867.2049-1.34426,1.98625-3.49326,3.057-3.50567,18.61684-.21581,37.23685-.15563,56.12129-.15563-3.76553,12.35774-7.404,24.29863-11.04253,36.2395l1.83565,1.181a15.24085,15.24085,0,0,1,1.64429-2.91975c19.41342-21.65694,44.26253-26.93932,71.76931-23.05921,12.69615,1.79093,21.04588,9.97384,26.45851,21.30348,5.59867,11.71913,6.94736,24.24187,6.47358,36.96789-1.23791,33.24912-12.11849,63.782-27.19745,92.98027-4.87035,9.43069-10.665,18.3942-16.26862,27.42781-.881,1.42015-2.98578,2.92623-4.54827,2.95174-18.30886.29859-36.62211.32325-54.93432.403C562.29588,312.74608,561.99937,312.53175,562.46436,312.71033Z"/><path class="cls-1" d="M610.34335,399.63576c-5.83145,17.86458-12.08159,35.29027-17.15946,53.05056-5.1158,17.8929-7.50891,36.34268-8.44513,54.78262,10.54875,1.31258,20.73564,2.44209,30.87935,3.87635,13.38587,1.89266,13.3713,1.99542,13.3713,15.52093v37.82527c-14.15245-2.927-28.04681-5.80055-42.98565-8.89013,1.64716,16.30437,6.98482,29.81189,17.17263,41.29548,10.14346,11.43354,23.09063,18.25889,38.03332,22.105,0,18.00206.00457,35.78634-.00946,53.57056-.001,1.29846-.137,2.5968-.23649,4.36a124.25756,124.25756,0,0,1-36.11728-9.55441c-32.68016-14.18888-51.24034-40.136-60.7632-73.44826-6.78766-23.744-8.43238-48.09773-7.83453-72.6294A370.78317,370.78317,0,0,1,555.85987,409.9849c3.56338-10.42758,3.79323-10.34917,14.84192-10.34917h35.467C607.768,399.63573,609.36718,399.63576,610.34335,399.63576Z"/><path class="cls-1" d="M1288.87462,495.52h58.94275a139.83749,139.83749,0,0,0-12.96644,56.61589c-.27133,19.57771,3.29956,38.64058,9.12814,58.03929H1311.185c-12.63034,0-12.63766.00219-16.32542-12.28391-1.0909-3.63453-2.12776-7.28521-3.40679-11.67478-7.02892,9.87556-15.11446,17.59515-25.19589,23.04689-18.02058,9.74494-37.359,11.842-57.14425,8.37785-16.54647-2.897-27.38246-15.82373-30.44229-34.10194-2.60491-15.5606-.67868-30.82883,3.2122-45.9158a195.47742,195.47742,0,0,1,19.08879-46.941c.85863-1.5298,3.08143-3.236,4.69327-3.25811,17.14207-.23539,34.28852-.14658,51.43376-.147h3.943c-1.11116,2.04244-1.88755,3.54454-2.73068,5.00824-9.9709,17.30884-19.55617,34.85761-23.98152,54.51151a59.07445,59.07445,0,0,0-.64476,19.64726c.7243,6.0477,5.46453,9.17793,11.61372,9.79547a36.1736,36.1736,0,0,0,36.13143-19.1173,21.90812,21.90812,0,0,0,2.64053-12.84629C1282.59282,527.905,1284.48465,511.7684,1288.87462,495.52Z"/><path class="cls-1" d="M1364.712,228.581V179.11663c5.24811,1.231,10.31225,2.41881,15.55658,3.64889,1.08335-5.86906,1.81411-11.4643,3.16841-16.90457,10.32384-41.47009,47.07466-66.14329,89.408-60.49391,16.651,2.22209,31.45256,7.48363,43.2178,20.275,19.15089,20.82125,23.07166,71.467-16.60234,91.15506-18.49027,9.1757-38.0773,13.74014-58.48647,15.32186C1415.47394,234.09528,1390.15252,232.256,1364.712,228.581Zm73.94838-37.88686v.03923c3.15829,0,6.43357.5427,9.45229-.1061,7.73712-1.66288,15.61014-3.20354,22.95893-6.018,7.46848-2.86026,11.00825-9.42226,11.1688-17.39738.151-7.50357-3.58613-13.05885-9.95431-16.68066-10.08594-5.73621-20.51848-6.0649-30.17426.49218-12.583,8.54465-17.40936,21.33373-17.27761,36.12862.01062,1.19054,2.06689,3.19609,3.37557,3.38C1431.63319,191.01312,1435.16919,190.69418,1438.6604,190.69418Z"/><path class="cls-1" d="M684.19992,177.09254c5.14356,1.23957,10.12993,2.44128,15.55512,3.74873.72626-4.40339,1.32459-8.63082,2.12935-12.81862,8.31228-43.252,46.43008-70.48634,90.08263-64.698,16.63278,2.2055,31.47147,7.37621,43.31223,20.10447,19.40629,20.861,23.28333,71.80312-16.60119,91.48012-19.77881,9.75788-40.74881,14.28636-62.49368,15.56574-24.00671,1.41242-47.90936-.26356-71.98446-3.90195Zm74.01732,11.69061c11.24785.31334,22.30758-.77081,32.44946-6.08692,14.02142-7.34962,14.87876-25.07508,1.764-33.7603a28.56771,28.56771,0,0,0-34.99922,3.18861c-8.61569,7.98093-12.54958,18.18429-13.32128,29.6989-.45291,6.75676-.34049,6.78233,6.62627,6.95006C753.22867,188.83351,755.72353,188.78315,758.21724,188.78315Z"/><path class="cls-1" d="M652.12328,570.07429V520.58234c5.25745,1.2683,10.245,2.47144,15.65943,3.77758.72485-4.415,1.31825-8.6492,2.12423-12.84269,8.30941-43.23736,46.4463-70.47884,90.10019-64.66924,15.72274,2.09242,29.931,6.80231,41.6175,18.2688,21.56163,21.15575,25.68345,74.23349-16.26429,94.03331-19.44472,9.17805-39.93826,13.61821-61.17836,14.84658C700.17368,575.385,676.27225,573.72643,652.12328,570.07429Zm74.10967-37.775c13.522.28158,24.63409-1.84963,32.46758-6.05148,13.95145-7.48366,14.865-25.1077,1.75177-33.79389a28.58983,28.58983,0,0,0-34.99959,3.1846c-8.61617,7.98046-12.55067,18.18343-13.32347,29.698-.45365,6.75983-.34135,6.78549,6.62291,6.95316C721.24439,532.34964,723.73925,532.29924,726.233,532.29924Z"/><path class="cls-1" d="M321.30522,226.55693V177.073l15.6557,3.764c.72741-4.389,1.33085-8.60906,2.13463-12.79066,8.31795-43.27111,46.40989-70.49958,90.063-64.728,17.00272,2.248,32.35782,7.37262,43.91445,20.90355,24.05859,28.1688,15.844,73.0234-16.75466,90.36907-19.6226,10.44114-40.97488,14.59865-62.89484,15.88442C369.4163,231.88354,345.51393,230.21267,321.30522,226.55693Zm73.88726-37.84366v.027c3.15837,0,6.43713.55071,9.4518-.107,7.89184-1.72174,16.21171-2.8339,23.376-6.25083,14.22766-6.78574,14.6283-24.999,1.40777-33.58691-9.30336-6.04335-22.58495-5.92091-31.4812.69583-11.8662,8.82567-16.50521,21.17629-16.6814,35.5787-.03538,2.88853,1.30062,3.7616,3.95316,3.67066C388.53965,188.62678,391.86754,188.71327,395.19248,188.71327Z"/><path class="cls-1" d="M1077.13836,265.04035c-16.41386-.8444-35.63892-8.37593-50.66274-24.92523-22.85347-25.17389-20.88381-62.5059,4.2886-85.4011,28.2961-25.73628,76.53169-26.48754,105.671-1.64577,31.593,26.93346,28.65173,73.42091-6.20287,98.17646C1116.01035,261.346,1100.09741,265.69558,1077.13836,265.04035Zm8.00063-88.65295q-.02671.25164-.05331.50329a52.17946,52.17946,0,0,0-5.47515.02643c-12.967,1.37569-21.91232,9.71595-22.73544,21.10459-.83507,11.55177,6.42442,21.81041,18.63972,24.02109a51.54086,51.54086,0,0,0,20.55423-.65109c10.31054-2.45335,16.52829-12.06189,16.287-22.40347-.23277-9.97732-7.016-18.29529-17.42742-21.02158A98.4488,98.4488,0,0,0,1085.139,176.3874Z"/><path class="cls-1" d="M1079.077,624.53037c-15.86084-.79661-34.71942-8.03074-49.63149-23.869-24.50318-26.02475-22.08207-65.01464,5.24677-88.13759,28.3005-23.94507,74.47968-24.19566,103.02369-.559,32.31887,26.76254,29.67505,73.86326-5.5364,98.8128C1117.94646,620.86268,1102.02986,625.1988,1079.077,624.53037Zm7.8679-88.66206q-.028.24648-.05588.493c-1.66015,0-3.33311-.134-4.97862.02115-12.91593,1.218-22.02979,9.49261-23.02042,20.83071-1.00721,11.528,6.122,21.908,18.342,24.211a51.6975,51.6975,0,0,0,21.02-.60615c10.2798-2.46107,16.45876-12.245,16.09252-22.531-.35026-9.83758-6.92705-17.96432-17.12743-20.73934A95.99569,95.99569,0,0,0,1086.94493,535.86831Z"/><path class="cls-1" d="M1028.44064,337.35729c-45.819-3.2684-102.17781-47.29969-120.05437-101.68653,7.6075-2.87672,15.34455-5.39848,22.72732-8.709,7.22339-3.23906,14.08559-7.28216,19.92979-10.35392,7.55784,10.29376,13.987,20.88173,22.204,29.83076,13.7923,15.021,31.72772,23.24613,51.6694,27.07479,2.25025.432,4.12707.4879,4.10755,3.64839-.12175,19.616-.08808,39.23281-.13139,58.84934A4.4972,4.4972,0,0,1,1028.44064,337.35729Z"/><path class="cls-1" d="M448.99416,275.77008V332.111c-53.89992-4.98133-97.76136-49.77847-108.80218-96.84614,5.55887.53113,10.92306,1.26508,16.30949,1.50908,9.30363.42143,18.62532.44578,27.929.86621,1.74219.07873,4.10164.72295,5.05212,1.96505C404.59856,259.35749,423.94513,272.08377,448.99416,275.77008Z"/><path class="cls-1" d="M703.05253,235.80026c12.88927.65339,25.478,1.78751,38.061,1.72708,6.6201-.0318,10.93279,1.30922,15.3992,6.85253a83.69377,83.69377,0,0,0,55.29525,31.3445v56.28791C761.82264,327.98164,715.31406,286.25065,703.05253,235.80026Z"/><path class="cls-1" d="M779.81742,675.56805c-51.53661-4.401-96.99815-47.34043-108.86593-96.83445,5.57738.54818,10.92022,1.30224,16.28643,1.55,9.30314.42933,18.62483.45474,27.92871.87286,1.74969.07862,4.13067.68056,5.0756,1.91545,15.11776,19.7563,34.449,32.50945,59.57519,36.21724Z"/><path class="cls-1" d="M1648.37663,619.69038V675.3248c-47.042-2.69829-96.84705-44.08428-108.81445-96.6093,5.23847.53154,10.30237,1.28024,15.38969,1.51111,9.636.43719,19.28984.48211,28.92524.92912,1.7264.08008,4.03521.825,5.00131,2.085,14.91244,19.45027,33.94291,32.07818,58.43731,35.90256A4.61176,4.61176,0,0,1,1648.37663,619.69038Z"/><path class="cls-1" d="M1383.77751,238.18027c15.32783.4454,30.41972.83944,45.50515,1.40446a5.43526,5.43526,0,0,1,3.606,1.96537c15.05334,19.802,34.413,32.52668,59.49478,36.21333v56.32015C1439.45705,329.34294,1394.93789,285.31529,1383.77751,238.18027Z"/><path class="cls-1" d="M518.72556,606.00641H462.37387c-6.17783-37.82984-3.84684-75.4769.16848-113.42943H507.6629C504.07988,531.04643,507.19031,568.82178,518.72556,606.00641Z"/><path class="cls-1" d="M490.55246,470.64705c-18.39017-.02791-32.67-14.42039-32.72835-32.98641a32.60554,32.60554,0,0,1,33.06406-33.2068,33.09706,33.09706,0,1,1-.33571,66.19321Z"/></g></g></svg>